<svg version="1" xmlns="http://www.w3.org/2000/svg" width="1200" height="1200" viewBox="0 0 900.000000 900.000000"><path d="M322.8 72.5c-.2.2-3.4.5-7.3.8-9.2.7-21.4 3.2-29.5 5.8-13.3 4.4-49.2 21.1-66 30.7-8.4 4.8-27.7 17.5-29 19.1-.3.3-2.5 2.2-5 4.2-14.6 11.8-34.5 35.6-51.2 61.4-15 23.1-20.5 36.6-23.8 58.6-2.7 17.9-3.2 19.3-9.6 29.5-8.3 13.3-15.2 22.5-27.5 36.9-9.2 10.8-14.5 17.6-26.7 34-2.3 3.1-10.4 16.8-13 22-7.4 15-13.2 35.5-14.7 52.5-.3 3.6-.8 8.1-1 10-.4 4.3-1.4 13.7-2 20.5-.2 2.7-.6 7-.9 9.5-.3 2.5-.8 7.6-1.1 11.5-.3 3.8-.8 9.2-1 12-1.2 12.6-1.6 24.6-1.5 44 .4 70.3.4 69.6 6.3 81 2.8 5.3 14.3 21.4 19.4 27 1 1.1 3.9 4.6 6.6 7.7 6.6 7.8 19.1 20 22.5 21.7 2.5 1.3 25.1 17.7 26.2 19 .3.3 4.1 3.3 8.4 6.6 4.3 3.3 8.4 6.4 9 7 4.6 4.1 25.1 17.9 31.3 20.9 1.3.6 2.3 1.4 2.3 1.8 0 .5.6.8 1.4.8.8 0 1.6.3 1.8.7.4 1 6.5 5.3 7.4 5.3.3 0 2.3 1.2 4.3 2.7 2 1.6 4.5 3.3 5.6 4 50.2 30.3 77.1 43.7 118.1 58.9 16.9 6.2 37 12.1 49.4 14.4 3 .6 6.6 1.2 8 1.5 4.2.9 27.1 4.3 33.7 5 3.5.4 7.5.9 9 1.1 1.6.1 6.2.6 10.3.9 4.1.4 9.1.9 11 1 9.2.9 70.5 2 151.5 2.8 14 .1 22.6-.8 30.1-3.2 17-5.6 24.9-6.7 51.7-7.6 7.6-.3 16-.7 18.5-1.1 4.9-.6 20.3-5.5 47.7-14.9 15.9-5.5 46.4-14.5 54.4-16.1.8-.1 4.2-1.7 7.6-3.3 5.1-2.5 8.7-5.7 18.7-16.4 22.1-23.4 37.8-41.4 37.8-43.2 0-1.4 8.8-13 13.9-18.5 14.3-15.1 16.9-19 19.7-30.2 2.9-11 1.4-16.4-10.3-38.3-2.1-3.9-5.1-8.8-6.8-11-3.5-4.5-20.8-22.1-27.8-28.1-5.1-4.4-5.9-7.2-3.3-12.3 1.9-3.7 3.4-4.5 20.6-12.1 8-3.5 15.9-7.3 17.6-8.4 10.3-6.8 17.2-12.2 19.4-15.2 1.4-1.9 4.2-5.3 6.3-7.7 8.2-9.2 10.4-18.1 7.1-27.9-1.6-4.6-15.2-25.8-21.9-34.2-2.7-3.4-8.3-10.9-12.4-16.6-4.1-5.8-9.1-12.8-11.1-15.5-2-2.8-5.4-7.5-7.6-10.5-2.1-3-4.4-6.1-5.1-6.8-2.2-2.2-1.6-6.9 1.1-8.9 1.4-1 9.7-6 18.6-11.2 15.3-8.9 16.2-9.6 15.8-12.2-.4-2.3 0-2.8 2.3-3.3 3.6-.7 5.7-3.9 7-11 1.4-7.6 5-17 11.1-29.1 5.3-10.6 9.4-20.6 10.3-25.2.3-1.5.7-3.9 1-5.3.7-3.5.8-11.8.1-16-.3-1.9-1-7.6-1.6-12.5-2.7-22.4-2.7-22.7-4.4-32.2-3.8-20.9-7.6-30.6-15.9-40.1-7.4-8.4-13.8-12.4-43.2-27.1-29-14.4-48.3-23-72-31.9-8.8-3.3-18.2-7.1-21-8.5-4.7-2.4-18.4-8.9-41-19.7-16-7.6-25.5-12.4-32.5-16.5-15.2-8.7-30.4-15-41.2-17-11.8-2.1-40.9-2.7-53.3-1-20.4 2.7-41 8.6-58.3 16.6-4.6 2.2-8.6 3.9-8.9 3.9-.2 0-1.7.8-3.1 1.8-4.8 3.3-13.9 5.5-20.2 4.9-5.1-.4-7.5-1.5-19.2-8.7-15.7-9.7-19.5-12.2-26.6-17.3-10.1-7.3-27.5-16.5-38.2-20.2-.3-.1-1.2-.5-2-.8-2.7-1.2-16.4-4.5-21-5.1-10.8-1.5-40.2-2.9-41.2-2.1z"/></svg>